# xmcd
#
# Track frame offsets: 
#        182
#        19142
#        47875
#        80262
#        91932
#        113645
#        131715
#        153207
#        181657
#
# Disc length: 2875 seconds
#
# Revision: 5
# Processed by: cddbd v1.5.2PL0 Copyright (c) Steve Scherf et al.
# Submitted via: ExactAudioCopyFreeDBPlugin 1.0
#
DISCID=620b3909
DTITLE=Lightnin' Hopkins - Texas Blues
DYEAR=1900
DGENRE=Blues
TTITLE0=Black Cat Blues
TTITLE1=Take It Easy
TTITLE2=Mighty Crazy
TTITLE3=Lightnin' Piano Boogie
TTITLE4=Your Own Fault, Baby, To Treat Me The Way You Do
TTITLE5=I've Had My Fun If I Don't Get Well No More
TTITLE6=The Trouble Blues
TTITLE7=Wonder Why
TTITLE8=Mister Charlie
EXTD=
EXTT0=
EXTT1=
EXTT2=
EXTT3=
EXTT4=
EXTT5=
EXTT6=
EXTT7=
EXTT8=
PLAYORDER=
